<?xml version="1.0" encoding="utf-8"?>
<!-- Generator: Adobe Illustrator 19.2.1, SVG Export Plug-In . SVG Version: 6.00 Build 0)  -->
<svg version="1.1" id="Layer_1" xmlns="http://www.w3.org/2000/svg" xmlns:xlink="http://www.w3.org/1999/xlink" x="0px" y="0px"
	 viewBox="0 0 527.5 100" enable-background="new 0 0 527.5 100" xml:space="preserve">
<g>
	<g>
		<g>
			<path fill="#ED1F24" d="M32.1,50c0-9.9,8-17.9,17.9-17.9c9.9,0,17.9,8,17.9,17.9c0,9.9-8,17.9-17.9,17.9
				C40.1,67.9,32.1,59.9,32.1,50z"/>
		</g>
		<path fill="#ED1F24" d="M29.4,67.9c-9.9,0-17.9-8-17.9-17.9c0-9.9,8-17.9,17.9-17.9V67.9z"/>
		<path fill="#ED1F24" d="M70.6,87.6v-17l17,0C87.6,80,80,87.6,70.6,87.6z"/>
		<path fill="#ED1F24" d="M29.4,12.4v17h-17C12.4,20,20,12.4,29.4,12.4z"/>
		<path fill="#ED1F24" d="M29.4,87.6l0-17l-17,0C12.4,80,20,87.6,29.4,87.6z"/>
		<g>
			<path fill="#ED1F24" d="M91.3,65.3V34.6c5.2,3.1,8.7,8.8,8.7,15.4C100,56.5,96.5,62.2,91.3,65.3z"/>
		</g>
		<g>
			<path fill="#ED1F24" d="M34.7,8.7h30.7C62.2,3.5,56.5,0,50,0C43.5,0,37.8,3.5,34.7,8.7z"/>
		</g>
		<g>
			<path fill="#ED1F24" d="M65.1,91.3H34.4c3.1,5.2,8.8,8.7,15.3,8.7C56.3,100,62,96.5,65.1,91.3z"/>
		</g>
		<path fill="#ED1F24" d="M67.9,70.6c0,9.9-8,17.9-17.9,17.9c-9.9,0-17.9-8-17.9-17.9H67.9z"/>
		<path fill="#ED1F24" d="M70.6,67.9c9.9,0,17.9-8,17.9-17.9c0-9.9-8-17.9-17.9-17.9V67.9z"/>
		<path fill="#ED1F24" d="M67.9,29.4c0-9.9-8-17.9-17.9-17.9c-9.9,0-17.9,8-17.9,17.9H67.9z"/>
		<g>
			<path fill="#ED1F24" d="M8.7,65.3l0-30.7C3.5,37.8,0,43.5,0,50C0,56.5,3.5,62.2,8.7,65.3z"/>
		</g>
		<path fill="#ED1F24" d="M87.6,29.4h-17v-17C80,12.4,87.6,20,87.6,29.4z"/>
	</g>
	<path fill="#010101" d="M239.8,29.4c-1.4,0-2.6,1.2-2.6,2.7v36c0,1.5,1.2,2.7,2.6,2.7c1.5,0,2.6-1.1,2.6-2.7v-36
		C242.4,30.6,241.3,29.4,239.8,29.4"/>
	<path fill="#010101" d="M230.9,46.9c-0.7-11.1-7.5-17.5-18.7-17.5h-9.9c-2.6,0-4.2,1.6-4.2,4.1v33.1c0,2.4,1.8,4.1,4.2,4.1h9.9
		c11.1,0,18.1-6.5,18.7-17.5C231,51.4,231,49,230.9,46.9 M225.7,53.2c-0.5,8.3-5.2,12.7-13.5,12.7h-8.9V34.4h8.9
		c8.4,0,13.1,4.4,13.5,12.7C225.8,48.8,225.8,51.2,225.7,53.2"/>
	<path fill="#010101" d="M155.2,66.5L145,53.9c4.5-0.9,9.7-3.6,9.7-11.7c0-6.4-4.1-12.8-13.4-12.8h-11.9c-2.5,0-4.2,1.7-4.2,4.1
		v34.6c0,1.4,1.2,2.7,2.6,2.7c1.4,0,2.6-1.2,2.6-2.7V54.8h6.8c1.6,0,2.2,0.7,3.1,1.8l10.8,13.3c0.5,0.6,1.2,0.9,1.9,0.9
		c0.6,0,1.3-0.2,1.8-0.7C155.9,69.2,156.1,67.5,155.2,66.5 M149.5,42.2c0,5.1-2.8,7.6-8.7,7.6h-10.3V34.5h10.6
		C146.5,34.5,149.5,37.2,149.5,42.2"/>
	<path fill="#010101" d="M175.4,29.4c-5,0-9.7,1.5-12.1,2.8c-1,0.5-1.6,1.5-1.6,2.6c0,0.6,0.2,1.3,0.7,1.7c0.4,0.5,1.1,0.7,1.8,0.7
		c0.5,0,1-0.1,1.4-0.3c3.6-1.5,6.8-2.2,9.8-2.2c7.2,0,10.2,2.9,10.2,9.8v2.3c-4.6-1.2-7.7-1.7-11.3-1.7c-9.5,0-15.7,5.1-15.7,12.9
		c0,8.2,5.7,13.2,15.3,13.2c7.8,0,13.7-2.8,15.8-4.3c1-0.7,1.2-1.4,1.2-2.4V43.8C190.9,34.1,185.8,29.4,175.4,29.4 M174.7,66.1
		c-7.2,0-10.8-2.7-10.8-8c0-5,4-8,10.8-8c3.6,0,6.5,0.6,11,1.9v11C183.2,64.8,178.4,66.1,174.7,66.1"/>
	<path fill="#010101" d="M283.8,45.6c-0.7-9.4-8.2-16.5-17.5-16.5S249.8,36,249,45.6c-0.2,3.1-0.2,5.7,0,8.9
		c0.7,9.5,8,16.5,17.3,16.5c9.3,0,16.8-7.1,17.5-16.5C284.1,51.2,284.1,48.7,283.8,45.6 M266.4,65.9c-6.5,0-11.5-4.8-12.1-11.7
		c-0.2-3-0.2-5.4,0-8.4c0.6-6.9,5.6-11.7,12.1-11.7c6.6,0,11.6,4.8,12.2,11.7c0.3,2.9,0.3,5.4,0,8.4C278,61,273,65.9,266.4,65.9"/>
	<path fill="#010101" d="M288,52.6c0,1.4,1.2,2.5,2.6,2.5h10.4c1.4,0,2.5-1.1,2.5-2.5c0-1.4-1.1-2.5-2.5-2.5h-10.4
		C289.1,50.1,288,51.2,288,52.6"/>
	<path fill="#010101" d="M436.7,29.4c-5,0-9.7,1.5-12.2,2.8c-1,0.5-1.6,1.5-1.6,2.6c0,0.6,0.2,1.3,0.7,1.7c0.5,0.5,1.1,0.7,1.8,0.7
		c0.5,0,0.9-0.1,1.4-0.3c3.6-1.5,6.8-2.2,9.8-2.2c7.2,0,10.2,2.9,10.2,9.8v2.3c-4.6-1.2-7.7-1.7-11.3-1.7c-9.5,0-15.7,5.1-15.7,12.9
		c0,8.2,5.7,13.2,15.3,13.2c7.8,0,13.7-2.8,15.8-4.3c1-0.7,1.2-1.4,1.2-2.4V43.8C452.1,34.1,447.1,29.4,436.7,29.4 M435.9,66.1
		c-7.2,0-10.8-2.7-10.8-8c0-5,4-8,10.8-8c3.6,0,6.5,0.6,11,1.9v11C444.4,64.8,439.7,66.1,435.9,66.1"/>
	<path fill="#010101" d="M512,29.4c-5,0-9.7,1.5-12.1,2.8c-1,0.5-1.6,1.5-1.6,2.6c0,0.6,0.2,1.3,0.7,1.7c0.5,0.5,1.1,0.7,1.8,0.7
		c0.5,0,1-0.1,1.4-0.3c3.6-1.5,6.8-2.2,9.8-2.2c7.2,0,10.2,2.9,10.2,9.8v2.3c-4.6-1.2-7.7-1.7-11.3-1.7c-9.5,0-15.7,5.1-15.7,12.9
		c0,8.2,5.7,13.2,15.3,13.2c7.8,0,13.7-2.8,15.8-4.3c0.9-0.7,1.2-1.4,1.2-2.4V43.8C527.5,34.1,522.4,29.4,512,29.4 M511.2,66.1
		c-7.2,0-10.8-2.7-10.8-8c0-5,4-8,10.8-8c3.6,0,6.5,0.6,11,1.9v11C519.7,64.8,515,66.1,511.2,66.1"/>
	<path fill="#010101" d="M359.5,29.4c-5,0-9.7,1.5-12.1,2.8c-1,0.5-1.6,1.5-1.6,2.6c0,0.6,0.2,1.3,0.7,1.7c0.4,0.5,1.1,0.7,1.8,0.7
		c0.5,0,1-0.1,1.4-0.3c3.6-1.5,6.8-2.2,9.8-2.2c7.2,0,10.2,2.9,10.2,9.8v2.3c-4.6-1.2-7.7-1.7-11.3-1.7c-9.5,0-15.7,5.1-15.7,12.9
		c0,8.2,5.7,13.2,15.3,13.2c7.8,0,13.7-2.8,15.8-4.3c1-0.7,1.2-1.4,1.2-2.4V43.8C374.9,34.1,369.9,29.4,359.5,29.4 M358.7,66.1
		c-7.2,0-10.8-2.7-10.8-8c0-5,4-8,10.8-8c3.6,0,6.5,0.6,11,1.9v11C367.2,64.8,362.5,66.1,358.7,66.1"/>
	<path fill="#010101" d="M337.2,57.4c-1.1,0-1.9,0.6-2.4,1.6c-1.8,4.2-5.8,6.8-10.4,6.8c-6.4,0-11.1-4.7-11.7-11.7
		c-0.2-3-0.2-5.4,0-8.3c0.6-7,5.3-11.8,11.7-11.8c4.6,0,8.6,2.6,10.4,6.8c0.3,0.6,0.9,1.6,2.4,1.6c1.2,0,2.5-1,2.5-2.4
		c0-0.4-0.1-0.7-0.2-1.2c-2.3-5.9-8.4-9.8-15.1-9.8c-9.2,0-16.1,6.8-16.8,16.5c-0.2,3.1-0.2,5.7,0,8.9c0.7,9.7,7.6,16.5,16.8,16.5
		c6.7,0,12.7-4,15.1-9.9c0.1-0.4,0.2-0.7,0.2-1.1C339.7,58.5,338.4,57.4,337.2,57.4"/>
	<path fill="#010101" d="M399,29.6c-7.5,0-13.3,2.3-15.9,4.3c-0.9,0.6-1.2,1.3-1.2,2.6v32c0,1.5,1.1,2.7,2.6,2.7
		c1.5,0,2.6-1.1,2.6-2.7V37.5c2.4-1.5,7-2.9,11.8-2.9c7.1,0,11.4,4.2,11.4,11.2v22.7c0,1.5,1.1,2.7,2.6,2.7c1.5,0,2.6-1.1,2.6-2.7
		V45.6C415.4,35.3,409.6,29.6,399,29.6"/>
	<path fill="#010101" d="M491.9,46.9c-0.7-11.1-7.5-17.5-18.7-17.5h-9.9c-2.6,0-4.2,1.6-4.2,4.1v33.1c0,2.4,1.7,4.1,4.2,4.1h9.9
		c11.1,0,18.1-6.5,18.7-17.5C492,51.4,492,49,491.9,46.9 M486.7,53.2c-0.5,8.3-5.2,12.7-13.5,12.7h-8.9V34.4h8.9
		c8.4,0,13.1,4.4,13.5,12.7C486.8,48.8,486.8,51.2,486.7,53.2"/>
</g>
</svg>
